<?xml version="1.0" encoding="UTF-8"?>
<svg id="Layer_2" data-name="Layer 2" xmlns="http://www.w3.org/2000/svg" viewBox="0 0 739.9 518.91">
  <defs>
    <style>
      .cls-1 {
        fill: #26a9ac;
      }

      .cls-2 {
        fill: #3b474d;
      }
    </style>
  </defs>
  <g id="Layer_2-2" data-name="Layer 2">
    <g>
      <path class="cls-2" d="M0,352.35c0-31.34,20.53-53.7,51.24-53.7,24.94,0,43.09,12.85,48.86,36.27l-25.45,6.87c-3.39-11.09-11.2-17.26-22.56-17.26-15.61,0-24.6,11.8-24.6,27.82s8.99,27.82,24.6,27.82c11.37,0,19.17-6.16,22.56-17.26l25.45,6.87c-5.77,23.42-23.92,36.27-48.86,36.27-30.88,0-51.24-22.36-51.24-53.7Z"/>
      <path class="cls-2" d="M104.17,352.35c0-32.75,22.39-53.7,52.59-53.7s52.42,20.95,52.42,53.7-22.39,53.7-52.59,53.7-52.42-20.95-52.42-53.7ZM181.71,352.35c0-16.38-9.5-27.82-24.94-27.82s-25.11,11.45-25.11,27.82,9.5,27.82,25.11,27.82,24.94-11.44,24.94-27.82Z"/>
      <path class="cls-2" d="M315.74,342.49v60.75h-27.15v-58.11c0-14.09-6.79-21.13-18.83-21.13-13.23,0-21.72,8.63-21.72,20.95v58.28h-27.15v-101.77h21.55l4.92,13.21c6.79-9.86,17.47-16.02,31.73-16.02,25.11,0,36.65,17.26,36.65,43.84Z"/>
      <path class="cls-2" d="M424.32,301.46l-40.38,101.77h-25.45l-40.38-101.77h29.69l11.71,34.34c5.77,16.9,10.01,32.22,12.05,40.15,2.21-7.92,6.45-23.07,12.38-40.15l11.88-34.34h28.5Z"/>
      <path class="cls-2" d="M522.05,359.92h-73.29c1.87,13.73,9.5,22.36,23.75,22.36,12.05,0,20.53-5.28,24.77-14.79l23.07,6.34c-5.94,20.25-24.43,32.22-48.35,32.22-31.73,0-50.22-21.83-50.22-53.35s20.87-54.06,51.75-54.06c32.74,0,48.52,23.24,48.52,51.77v9.51ZM448.59,341.78h46.99c-1.7-13.03-9.5-20.78-23.24-20.78-12.55,0-22.06,7.92-23.75,20.78Z"/>
      <path class="cls-2" d="M628.94,342.49v60.75h-27.15v-58.11c0-14.09-6.79-21.13-18.83-21.13-13.23,0-21.72,8.63-21.72,20.95v58.28h-27.15v-101.77h21.55l4.92,13.21c6.79-9.86,17.47-16.02,31.73-16.02,25.11,0,36.65,17.26,36.65,43.84Z"/>
      <path class="cls-2" d="M739.9,359.92h-73.29c1.87,13.73,9.5,22.36,23.75,22.36,12.05,0,20.53-5.28,24.77-14.79l23.07,6.34c-5.94,20.25-24.43,32.22-48.35,32.22-31.73,0-50.22-21.83-50.22-53.35s20.87-54.06,51.75-54.06c32.74,0,48.52,23.24,48.52,51.77v9.51ZM666.43,341.78h46.99c-1.7-13.03-9.5-20.78-23.24-20.78-12.55,0-22.06,7.92-23.75,20.78Z"/>
    </g>
    <g>
      <path class="cls-1" d="M159.14,481.72v37.2h-14.2v-62.14h14.2l16.87,26.19,16.96-26.19h14.2v62.14h-14.2v-37.2l-13.14,18.47h-7.63l-13.05-18.47Z"/>
      <path class="cls-1" d="M253.16,508.79l-3.28,10.12h-14.29l20.95-62.14h16.25l21.04,62.14h-14.38l-3.2-10.12h-23.08ZM272.24,496.36l-7.55-23.44-7.55,23.44h15.09Z"/>
      <path class="cls-1" d="M355.79,498.41l17.58,20.51h-17.4l-16.42-19.18h-3.11v19.18h-14.2v-62.14h26.01c11.81,0,21.48,9.5,21.48,21.48,0,9.14-5.77,17.04-13.94,20.15ZM336.43,469.2v18.11h9.5c4.97,0,9.06-4.08,9.06-9.05s-4.08-9.05-9.06-9.05h-9.5Z"/>
      <path class="cls-1" d="M415.98,496.28v22.64h-14.2v-62.14h14.2v23.26l17.93-23.26h15.36l-23.61,30.54,27.17,31.6h-17.49l-19.35-22.64Z"/>
      <path class="cls-1" d="M524.65,518.91h-43.41v-62.14h41.19v12.43h-26.99v12.43h17.4v12.43h-17.4v12.43h29.21v12.43Z"/>
      <path class="cls-1" d="M566.73,518.91v-49.71h-19v-12.43h52.2v12.43h-19v49.71h-14.2Z"/>
    </g>
    <g>
      <path class="cls-1" d="M429.83,15.09l-11.83-12.23c-3.68-3.81-9.65-3.81-13.33,0l-34.72,35.9L335.23,2.85c-3.68-3.81-9.65-3.81-13.33,0l-11.83,12.23c-3.68,3.8-3.68,9.97,0,13.78l52.23,53.99c4.23,4.37,11.09,4.37,15.32,0l52.23-53.99c3.68-3.81,3.68-9.97,0-13.78Z"/>
      <path class="cls-1" d="M310.07,223.33l11.83,12.23c3.68,3.81,9.65,3.81,13.33,0l34.72-35.9,34.72,35.9c3.68,3.81,9.65,3.81,13.33,0l11.83-12.23c3.68-3.8,3.68-9.97,0-13.78l-52.23-53.99c-4.23-4.37-11.09-4.37-15.32,0l-52.23,53.99c-3.68,3.81-3.68,9.97,0,13.78Z"/>
      <path class="cls-1" d="M470.66,181.12l11.83-12.23c3.68-3.81,3.68-9.98,0-13.78l-34.72-35.9,34.72-35.9c3.68-3.81,3.68-9.98,0-13.78l-11.83-12.23c-3.68-3.8-9.64-3.81-13.33,0l-52.22,54c-4.23,4.37-4.23,11.46,0,15.84l52.22,54c3.68,3.8,9.65,3.8,13.33,0Z"/>
      <path class="cls-1" d="M269.24,57.3l-11.83,12.23c-3.68,3.81-3.68,9.98,0,13.78l34.72,35.9-34.72,35.9c-3.68,3.81-3.68,9.98,0,13.78l11.83,12.23c3.68,3.8,9.64,3.81,13.33,0l52.22-54c4.23-4.37,4.23-11.46,0-15.84l-52.22-54c-3.68-3.8-9.65-3.8-13.33,0Z"/>
    </g>
  </g>
</svg>