<?xml version="1.0" encoding="UTF-8"?>
<svg id="Layer_2" data-name="Layer 2" xmlns="http://www.w3.org/2000/svg" viewBox="0 0 812.41 195.7">
  <defs>
    <style>
      .cls-1 {
        fill: #26a9ac;
      }

      .cls-2 {
        fill: #3b474d;
      }
    </style>
  </defs>
  <g id="Layer_2-2" data-name="Layer 2">
    <g>
      <path class="cls-1" d="M145.63,12.13l-9.83-9.83c-3.06-3.06-8.02-3.06-11.08,0l-28.86,28.86L66.99,2.3c-3.06-3.06-8.02-3.06-11.08,0l-9.83,9.83c-3.06,3.06-3.06,8.02,0,11.08l43.42,43.41c3.52,3.52,9.22,3.52,12.73,0l43.42-43.41c3.06-3.06,3.06-8.02,0-11.08Z"/>
      <path class="cls-1" d="M46.07,179.58l9.83,9.83c3.06,3.06,8.02,3.06,11.08,0l28.86-28.86,28.86,28.86c3.06,3.06,8.02,3.06,11.08,0l9.83-9.83c3.06-3.06,3.06-8.02,0-11.08l-43.42-43.41c-3.52-3.52-9.22-3.52-12.73,0l-43.42,43.41c-3.06,3.06-3.06,8.02,0,11.08Z"/>
      <path class="cls-1" d="M179.58,145.63l9.83-9.83c3.06-3.06,3.06-8.02,0-11.08l-28.86-28.86,28.86-28.86c3.06-3.06,3.06-8.02,0-11.08l-9.83-9.83c-3.06-3.06-8.02-3.06-11.08,0l-43.41,43.42c-3.52,3.52-3.52,9.22,0,12.73l43.41,43.42c3.06,3.06,8.02,3.06,11.08,0Z"/>
      <path class="cls-1" d="M12.13,46.07l-9.83,9.83c-3.06,3.06-3.06,8.02,0,11.08l28.86,28.86L2.3,124.72c-3.06,3.06-3.06,8.02,0,11.08l9.83,9.83c3.06,3.06,8.02,3.06,11.08,0l43.41-43.42c3.52-3.52,3.52-9.22,0-12.73L23.21,46.07c-3.06-3.06-8.02-3.06-11.08,0Z"/>
    </g>
    <g>
      <path class="cls-2" d="M236.21,77.97c0-23.6,15.99-40.45,39.9-40.45,19.42,0,33.56,9.68,38.05,27.32l-19.82,5.17c-2.64-8.35-8.72-13-17.57-13-12.16,0-19.16,8.88-19.16,20.95s7,20.95,19.16,20.95c8.85,0,14.93-4.64,17.57-13l19.82,5.17c-4.49,17.64-18.63,27.32-38.05,27.32-24.05,0-39.9-16.84-39.9-40.45Z"/>
      <path class="cls-2" d="M317.34,77.97c0-24.67,17.44-40.45,40.96-40.45s40.83,15.78,40.83,40.45-17.44,40.45-40.96,40.45-40.83-15.78-40.83-40.45ZM377.72,77.97c0-12.33-7.4-20.95-19.42-20.95s-19.55,8.62-19.55,20.95,7.4,20.95,19.55,20.95,19.42-8.62,19.42-20.95Z"/>
      <path class="cls-2" d="M482.1,70.54v45.75h-21.14v-43.76c0-10.61-5.29-15.91-14.67-15.91-10.31,0-16.91,6.5-16.91,15.78v43.9h-21.14V39.64h16.78l3.83,9.95c5.29-7.43,13.61-12.07,24.71-12.07,19.55,0,28.54,13,28.54,33.02Z"/>
      <path class="cls-2" d="M566.66,39.64l-31.45,76.65h-19.82l-31.45-76.65h23.12l9.12,25.86c4.49,12.73,7.79,24.27,9.38,30.24,1.72-5.97,5.02-17.37,9.64-30.24l9.25-25.86h22.2Z"/>
      <path class="cls-2" d="M642.76,83.67h-57.08c1.45,10.34,7.4,16.84,18.5,16.84,9.38,0,15.99-3.98,19.29-11.14l17.97,4.77c-4.62,15.25-19.03,24.27-37.66,24.27-24.71,0-39.11-16.44-39.11-40.18s16.25-40.71,40.3-40.71c25.5,0,37.79,17.51,37.79,38.99v7.16ZM585.55,70.01h36.6c-1.32-9.81-7.4-15.65-18.1-15.65-9.78,0-17.18,5.97-18.5,15.65Z"/>
      <path class="cls-2" d="M726,70.54v45.75h-21.14v-43.76c0-10.61-5.29-15.91-14.67-15.91-10.31,0-16.91,6.5-16.91,15.78v43.9h-21.14V39.64h16.78l3.83,9.95c5.29-7.43,13.61-12.07,24.71-12.07,19.55,0,28.54,13,28.54,33.02Z"/>
      <path class="cls-2" d="M812.41,83.67h-57.08c1.45,10.34,7.4,16.84,18.5,16.84,9.38,0,15.99-3.98,19.29-11.14l17.97,4.77c-4.62,15.25-19.03,24.27-37.66,24.27-24.71,0-39.11-16.44-39.11-40.18s16.25-40.71,40.3-40.71c25.5,0,37.79,17.51,37.79,38.99v7.16ZM755.2,70.01h36.6c-1.32-9.81-7.4-15.65-18.1-15.65-9.78,0-17.18,5.97-18.5,15.65Z"/>
    </g>
    <g>
      <path class="cls-1" d="M361.54,167.31v28.39h-10.84v-47.42h10.84l12.87,19.99,12.94-19.99h10.84v47.42h-10.84v-28.39l-10.03,14.09h-5.83l-9.96-14.09Z"/>
      <path class="cls-1" d="M433.29,187.98l-2.51,7.72h-10.91l15.99-47.42h12.4l16.06,47.42h-10.97l-2.44-7.72h-17.61ZM447.85,178.49l-5.76-17.89-5.76,17.89h11.52Z"/>
      <path class="cls-1" d="M511.61,180.05l13.41,15.65h-13.28l-12.53-14.63h-2.37v14.63h-10.84v-47.42h19.85c9.01,0,16.4,7.25,16.4,16.4,0,6.98-4.4,13.01-10.64,15.38ZM496.84,157.76v13.82h7.25c3.79,0,6.91-3.12,6.91-6.91s-3.12-6.91-6.91-6.91h-7.25Z"/>
      <path class="cls-1" d="M557.54,178.43v17.28h-10.84v-47.42h10.84v17.75l13.69-17.75h11.72l-18.02,23.31,20.73,24.12h-13.35l-14.77-17.28Z"/>
      <path class="cls-1" d="M640.47,195.7h-33.13v-47.42h31.44v9.48h-20.6v9.48h13.28v9.48h-13.28v9.48h22.29v9.48Z"/>
      <path class="cls-1" d="M672.59,195.7v-37.94h-14.5v-9.48h39.84v9.48h-14.5v37.94h-10.84Z"/>
    </g>
  </g>
</svg>